<svg xmlns="http://www.w3.org/2000/svg" width="36" height="36" viewBox="0 0 36 36"><defs><style>.a{fill:none;}.b{fill:#47a9ff;fill-rule:evenodd;}</style></defs><rect class="a" width="36" height="36"/><path class="b" d="M25.642,15.169A1.729,1.729,0,0,0,24,13.389H18.375V10.153H8.464v3.236H2.837a1.76,1.76,0,0,0-1.677,1.78V34.18A1.8,1.8,0,0,0,2.837,36H24a1.767,1.767,0,0,0,1.64-1.82Zm-18-7.443H19.2a.574.574,0,0,0,.559-.607V1.254A1.272,1.272,0,0,0,18.562,0H8.24A1.268,1.268,0,0,0,7.085,1.254V7.119A.55.55,0,0,0,7.644,7.726Z" transform="translate(4.574 0)"/></svg>