<svg xmlns="http://www.w3.org/2000/svg" width="36" height="36" viewBox="0 0 36 36"><defs><style>.a{fill:#fff;fill-rule:evenodd;}.b{fill:none;}</style></defs><path class="a" d="M4.848,35.367a6.045,6.045,0,0,1-4.733-7A5.445,5.445,0,0,1,2.1,24.931l12.62-9.465a1.486,1.486,0,0,1,1.294-.324,1.424,1.424,0,0,1,.769.4l2.953,2.872a1.641,1.641,0,0,1,.445,1.416,1.539,1.539,0,0,1-.324.688L10.592,33.3a6.973,6.973,0,0,1-5.744,2.063ZM9.621,6.405a.222.222,0,0,0,.2.121.44.44,0,0,0,.2-.04A5.46,5.46,0,0,1,13.424,6,5.326,5.326,0,0,1,17.63,12.23a4.4,4.4,0,0,1-.283.971v.081a.574.574,0,0,0,.162.566l3.843,3.762,1.658-.4a2.2,2.2,0,0,1,.728,0,1.928,1.928,0,0,1,.89.485h0a1.653,1.653,0,0,1,.485,1.578h0l-.324,1.739,2.1,2.022a1.484,1.484,0,0,0,.688.4,1.413,1.413,0,0,0,1.254-.4l6.755-6.836a1.255,1.255,0,0,0,.364-.728,1.342,1.342,0,0,0-.4-1.254l-2.1-2.063-1.658.364a1.122,1.122,0,0,1-.728,0,1.447,1.447,0,0,1-.89-.445h0a1.779,1.779,0,0,1-.526-1.578v-.04l.364-1.7h0l-5.339-5.3A11.867,11.867,0,0,0,18.561.3,11.718,11.718,0,0,0,7.882,3.614L9.621,6.405Z" transform="translate(0.006 0.229)"/><rect class="b" width="36" height="36"/></svg>