<svg xmlns="http://www.w3.org/2000/svg" width="36" height="36" viewBox="0 0 36 36"><defs><style>.a{fill:none;}.b{fill:#47a9ff;}</style></defs><rect class="a" width="36" height="36"/><path class="b" d="M21.351,33.889a3.893,3.893,0,0,1-5.506-5.506L26.4,17.826,15.845,7.268a3.9,3.9,0,0,1,5.506-5.519L34.668,15.066a3.9,3.9,0,0,1,0,5.506L21.351,33.889Zm-14.574,0a3.893,3.893,0,0,1-5.506-5.506L11.829,17.826,1.271,7.268A3.9,3.9,0,1,1,6.777,1.749L20.094,15.066a3.9,3.9,0,0,1,0,5.506Z" transform="translate(0.037 0.181)"/></svg>