<svg xmlns="http://www.w3.org/2000/svg" width="36" height="36" viewBox="0 0 36 36"><defs><style>.a{fill:none;}.b{fill:#47a9ff;fill-rule:evenodd;}</style></defs><rect class="a" width="36" height="36"/><path class="b" d="M4.652,0h26.7A4.679,4.679,0,0,1,36,4.652v26.7A4.679,4.679,0,0,1,31.348,36H4.652A4.679,4.679,0,0,1,0,31.348V4.652A4.679,4.679,0,0,1,4.652,0Zm.566,20.063H14.36a1.589,1.589,0,0,1,1.618,1.578v9.182A1.615,1.615,0,0,1,14.36,32.4H5.218A1.615,1.615,0,0,1,3.6,30.822V21.64a1.589,1.589,0,0,1,1.618-1.578ZM21.681,3.56h9.182A1.615,1.615,0,0,1,32.44,5.178v9.142a1.615,1.615,0,0,1-1.578,1.618H21.681A1.589,1.589,0,0,1,20.1,14.319V5.178A1.589,1.589,0,0,1,21.681,3.56Zm0,16.5h9.182A1.579,1.579,0,0,1,32.44,21.64v9.182A1.606,1.606,0,0,1,30.863,32.4H21.681A1.579,1.579,0,0,1,20.1,30.822V21.64a1.554,1.554,0,0,1,1.578-1.578Z" transform="translate(0 0)"/></svg>