<svg xmlns="http://www.w3.org/2000/svg" width="36" height="36" viewBox="0 0 36 36"><defs><style>.a{fill:none;}.b{fill:#47a9ff;fill-rule:evenodd;}</style></defs><rect class="a" width="36" height="36"/><path class="b" d="M30.944.01H4.975A4.921,4.921,0,0,0,0,4.985V30.954a5.024,5.024,0,0,0,4.975,4.975H31.025A5.024,5.024,0,0,0,36,30.954V4.985A5.041,5.041,0,0,0,30.944.01ZM24.876,13.52h3.155V8.14H24.876v5.38Zm-5.663,0h3.155V8.14H19.213Zm-5.7,0h3.155V8.14H13.51v5.38Zm-5.622,0h3.155V8.14H7.888v5.38ZM30.782,24.28H24.876V29.74H11.043V24.28H5.1V5.43H30.782V24.28Z" transform="translate(0 0.03)"/></svg>