<svg xmlns="http://www.w3.org/2000/svg" width="36" height="36" viewBox="0 0 36 36"><defs><style>.a{fill:none;}.b{fill:#47a9ff;fill-rule:evenodd;}</style></defs><rect class="a" width="36" height="36"/><path class="b" d="M32,.01H3.883A4.429,4.429,0,0,0,0,3.934V31.925c0,1.78,2.1,4,3.883,4H32a4.444,4.444,0,0,0,4-4V3.934A4.331,4.331,0,0,0,32,.01ZM22,15.988a2,2,0,1,1-2.022,2.022A1.994,1.994,0,0,1,22,15.988Zm-8.009,0a2,2,0,1,1-1.982,2.022A1.994,1.994,0,0,1,14,15.988ZM18,6A11.993,11.993,0,1,0,29.973,18.01,12.015,12.015,0,0,0,18,6Z" transform="translate(0 0.03)"/></svg>