<svg xmlns="http://www.w3.org/2000/svg" width="36" height="36" viewBox="0 0 36 36"><defs><style>.a{fill:none;}.b{fill:#47a9ff;fill-rule:evenodd;}</style></defs><rect class="a" width="36" height="36"/><path class="b" d="M7.7,9.319v6.755h9.1V1.27H5.844A1.3,1.3,0,0,0,4.55,2.564V6.043A3.265,3.265,0,0,1,7.7,9.319ZM34.24,7.985H31.247a1.278,1.278,0,0,0-1.294,1.294v8.9a.449.449,0,0,1-.445.445H6.127a.449.449,0,0,1-.445-.445v-8.9A1.3,1.3,0,0,0,4.388,7.985H1.354A1.3,1.3,0,0,0,.06,9.279v16.3a1.339,1.339,0,0,0,1.294,1.335c7.564,0,25.119.081,32.885.081a1.347,1.347,0,0,0,1.335-1.335V9.319A1.321,1.321,0,0,0,34.24,7.985Zm-15.452,8.09H27.93V9.319a3.264,3.264,0,0,1,3.155-3.276V2.564A1.331,1.331,0,0,0,29.79,1.27h-11Z" transform="translate(0.183 3.867)"/></svg>