<svg xmlns="http://www.w3.org/2000/svg" width="36" height="36" viewBox="0 0 36 36"><defs><style>.a{fill:none;}.b{fill:#47a9ff;fill-rule:evenodd;}</style></defs><rect class="a" width="36" height="36"/><path class="b" d="M5.336,35.957h.121A5.485,5.485,0,0,0,9.3,34.379h0l7.888-8.171a13.745,13.745,0,0,0,14.8-2.953A13.625,13.625,0,0,0,35.35,9.5a.857.857,0,0,0-.607-.566.894.894,0,0,0-.769.243L26.694,16.46a2.857,2.857,0,0,1-4,0l-3.155-3.155a2.785,2.785,0,0,1,0-4L26.815,2.02a.843.843,0,0,0,.2-.809.75.75,0,0,0-.526-.566A13.6,13.6,0,0,0,9.624,18.361L1.615,26.694a5.418,5.418,0,0,0,3.721,9.263Z" transform="translate(0.003 0.003)"/></svg>