<svg xmlns="http://www.w3.org/2000/svg" width="36" height="36" viewBox="0 0 36 36"><defs><style>.a{fill:none;}.b{fill:#f86512;fill-rule:evenodd;}</style></defs><rect class="a" width="36" height="36"/><path class="b" d="M14.9,10.014H26.348V.77H14.9Zm8.489,10.376H36v-8.08H23.392Zm5.251-10.376H36V4.606A3.851,3.851,0,0,0,32.164.77H28.643ZM12.608,22.684H0v5.408a3.851,3.851,0,0,0,3.836,3.836h8.772V22.684h0Zm0-12.671V.77H3.836A3.851,3.851,0,0,0,0,4.606v5.408H12.608ZM9.652,20.389H21.1v-8.08H9.652v8.08ZM0,20.389H7.357v-8.08H0Zm28.643,2.3v9.244h3.521A3.851,3.851,0,0,0,36,28.092V22.684H28.643ZM14.9,31.928H26.348V22.684H14.9Z" transform="translate(0 1.651)"/></svg>