<svg xmlns="http://www.w3.org/2000/svg" width="36" height="36" viewBox="0 0 36 36"><defs><style>.a{fill:none;}.b{fill:#f86512;fill-rule:evenodd;}</style></defs><rect class="a" width="36" height="36"/><path class="b" d="M56.725,15.066,42.35.5a1.667,1.667,0,0,0-2.389,0L25.585,15.066a1.727,1.727,0,0,0-.485,1.195V33.847a1.674,1.674,0,0,0,1.68,1.68H55.53a1.673,1.673,0,0,0,1.68-1.68V16.261A1.634,1.634,0,0,0,56.725,15.066Zm-15.57,6.571A3.846,3.846,0,1,1,45,17.792,3.84,3.84,0,0,1,41.156,21.637Z" transform="translate(-23.392 0.473)"/></svg>