<svg xmlns="http://www.w3.org/2000/svg" width="36" height="36" viewBox="0 0 36 36"><defs><style>.a{fill:none;}.b{fill:#f86512;fill-rule:evenodd;}</style></defs><rect class="a" width="36" height="36"/><path class="b" d="M31.51,16.234l1.78,3.357a25.787,25.787,0,0,1,1.133,6.957v1.78a3.748,3.748,0,0,1-3.883,3.56H5.42a3.711,3.711,0,0,1-3.843-3.56v-1.78A27.408,27.408,0,0,1,2.67,19.591l1.82-3.357H1.7A1.851,1.851,0,0,1,0,14.292V8.387C0,4.1,3.074.58,6.836.58H29.124C32.926.58,36,4.1,36,8.387v5.906a1.855,1.855,0,0,1-1.739,1.942H31.51ZM4.692,26.549v1.78c0,.162.283.4.728.4H30.539c.485,0,.769-.243.769-.4v-1.78a24.177,24.177,0,0,0-.89-5.744L25.4,11.461l-.081-.243a2.366,2.366,0,0,0-1.982-1.254H12.661a2.5,2.5,0,0,0-2.022,1.254l-.081.243L5.582,20.8a24.177,24.177,0,0,0-.89,5.744ZM18,25.618a5.481,5.481,0,1,1,5.461-5.461A5.5,5.5,0,0,1,18,25.618ZM18,22.5a2.366,2.366,0,1,0-2.346-2.346A2.348,2.348,0,0,0,18,22.5Z" transform="translate(0 1.766)"/></svg>