<svg xmlns="http://www.w3.org/2000/svg" width="24" height="23.951" viewBox="0 0 24 23.951"><defs><style>.a{fill:none;}.b{fill:#47a9ff;fill-rule:evenodd;}</style></defs><rect class="a" width="23.805" height="23.805"/><g transform="translate(0.059 0.009)"><path class="b" d="M6.86,11.95,2.55,7.64a11.97,11.97,0,0,0,0,14.524l4.31-4.31A5.988,5.988,0,0,1,6.86,11.95Z" transform="translate(-0.095 -2.931)"/><path class="b" d="M17.934,6.78l4.31-4.31a11.97,11.97,0,0,0-14.524,0l4.31,4.31A5.988,5.988,0,0,1,17.934,6.78Z" transform="translate(-3.011 -0.015)"/><path class="b" d="M12.03,27.83,7.72,32.14a11.97,11.97,0,0,0,14.524,0l-4.31-4.31A5.988,5.988,0,0,1,12.03,27.83Z" transform="translate(-3.011 -10.654)"/><path class="b" d="M27.91,17.854l4.31,4.31a11.97,11.97,0,0,0,0-14.524l-4.31,4.31A5.988,5.988,0,0,1,27.91,17.854Z" transform="translate(-10.734 -2.931)"/></g></svg>