<svg xmlns="http://www.w3.org/2000/svg" width="24" height="24" viewBox="0 0 24 24"><defs><style>.a{fill:none;}.b{fill:#f86512;fill-rule:evenodd;}</style></defs><rect class="a" width="24" height="24"/><path class="b" d="M7.81.331,1.621,6.52a1.176,1.176,0,0,0-.331.81V22.868A1.131,1.131,0,0,0,2.43,24H21.9a1.131,1.131,0,0,0,1.14-1.132V10.394l-8.731,8.731a2.59,2.59,0,0,1-3.674,0L3.954,12.448A2.6,2.6,0,0,1,7.627,8.766l4.849,4.849L23.044,3.047V1.14A1.133,1.133,0,0,0,21.9,0H8.62a1.176,1.176,0,0,0-.81.331Z" transform="translate(-0.167 0)"/></svg>