<svg xmlns="http://www.w3.org/2000/svg" width="24" height="24" viewBox="0 0 24 24"><defs><style>.a{fill:none;}.b{fill:#47a9ff;fill-rule:evenodd;}</style></defs><rect class="a" width="24" height="24"/><path class="b" d="M3.558,23.972h.081A3.657,3.657,0,0,0,6.2,22.92h0l5.258-5.447a9.164,9.164,0,0,0,9.87-1.969,9.083,9.083,0,0,0,2.238-9.169.571.571,0,0,0-.4-.378.6.6,0,0,0-.512.162L17.8,10.974a1.9,1.9,0,0,1-2.67,0l-2.1-2.1a1.856,1.856,0,0,1,0-2.67l4.854-4.854a.562.562,0,0,0,.135-.539A.5.5,0,0,0,17.661.43,9.069,9.069,0,0,0,6.416,12.241L1.077,17.8a3.612,3.612,0,0,0,2.481,6.175Z" transform="translate(0.002 0.002)"/></svg>