<svg xmlns="http://www.w3.org/2000/svg" width="24" height="24" viewBox="0 0 24 24"><defs><style>.a{fill:none;}.b{fill:#47a9ff;fill-rule:evenodd;}</style></defs><rect class="a" width="24" height="24"/><path class="b" d="M21.6,14.649v5.582a1.122,1.122,0,0,1-1.133,1.133H3.587a1.139,1.139,0,0,1-1.133-1.133V14.649a4.208,4.208,0,0,0,3.56-1.187A4.246,4.246,0,0,0,9.007,14.7a4.309,4.309,0,0,0,3.02-1.24,4.309,4.309,0,0,0,3.02,1.24,4.357,4.357,0,0,0,3.02-1.24A4.154,4.154,0,0,0,21.6,14.649ZM20.737.6H3.317a1.113,1.113,0,0,0-1.052.728L.081,6.263a1.082,1.082,0,0,0-.081.4v3.991a1.271,1.271,0,0,0,.324.809c1.969,1.861,4.153,1.321,5.151-.108A.631.631,0,0,1,6.5,11.333,2.971,2.971,0,0,0,8.98,12.654a3.051,3.051,0,0,0,2.508-1.321.631.631,0,0,1,1.025,0,2.971,2.971,0,0,0,2.481,1.321,3,3,0,0,0,2.481-1.321.643.643,0,0,1,1.052.027c.971,1.429,3.209,1.969,5.124.108A1.064,1.064,0,0,0,24,10.658V6.667a1.082,1.082,0,0,0-.081-.4L21.735,1.328a1,1,0,0,0-1-.728Z" transform="translate(0 1.018)"/></svg>