<svg xmlns="http://www.w3.org/2000/svg" width="24" height="24" viewBox="0 0 24 24"><defs><style>.a{fill:#f86512;fill-rule:evenodd;}.b{fill:none;}</style></defs><path class="a" d="M3.233,23.6A4.03,4.03,0,0,1,.078,18.938,3.63,3.63,0,0,1,1.4,16.646l8.413-6.31a.99.99,0,0,1,.863-.216.949.949,0,0,1,.512.27L13.156,12.3a1.094,1.094,0,0,1,.3.944,1.026,1.026,0,0,1-.216.458L7.062,22.228A4.649,4.649,0,0,1,3.233,23.6ZM6.415,4.3a.148.148,0,0,0,.135.081.293.293,0,0,0,.135-.027A3.64,3.64,0,0,1,8.95,4.025a3.55,3.55,0,0,1,2.8,4.153,2.935,2.935,0,0,1-.189.647v.054a.383.383,0,0,0,.108.378l2.562,2.508,1.106-.27a1.466,1.466,0,0,1,.485,0,1.286,1.286,0,0,1,.593.324h0a1.1,1.1,0,0,1,.324,1.052h0l-.216,1.16,1.4,1.348a.989.989,0,0,0,.458.27.942.942,0,0,0,.836-.27l4.5-4.557a.837.837,0,0,0,.243-.485A.9.9,0,0,0,23.7,9.5L22.3,8.124l-1.106.243a.748.748,0,0,1-.485,0,.965.965,0,0,1-.593-.3h0a1.186,1.186,0,0,1-.351-1.052V6.992l.243-1.133h0l-3.56-3.533a7.911,7.911,0,0,0-4.072-2.1A7.812,7.812,0,0,0,5.255,2.434L6.415,4.3Z" transform="translate(0.003 0.127)"/><rect class="b" width="24" height="24"/></svg>