<svg xmlns="http://www.w3.org/2000/svg" width="24" height="24" viewBox="0 0 24 24"><defs><style>.a{fill:none;}.b{fill:#f86512;fill-rule:evenodd;}</style></defs><rect class="a" width="24" height="24"/><path class="b" d="M9.2,10.973a5.325,5.325,0,0,1-6.86-5.2A5.38,5.38,0,0,1,7.632.33a5.355,5.355,0,0,1,5.241,4.483,6.3,6.3,0,0,0-1.582,1.224,7.31,7.31,0,0,0-2.1,4.935Zm12.469.245a5.316,5.316,0,1,1-5.315-5.425,5.383,5.383,0,0,1,5.315,5.425ZM24,22.822v-1.6a2.988,2.988,0,0,0-2.943-3.014H11.641a2.984,2.984,0,0,0-2.924,3.014v1.6a.834.834,0,0,0,.828.848H23.172A.834.834,0,0,0,24,22.822ZM9.343,12.744h-6.4A2.988,2.988,0,0,0,0,15.758v1.6a.834.834,0,0,0,.828.848H7.853a4.9,4.9,0,0,1,.4-.471A4.854,4.854,0,0,1,11.2,16.323a7.334,7.334,0,0,1-1.857-3.579Z" transform="translate(0 0)"/></svg>