<svg xmlns="http://www.w3.org/2000/svg" width="24" height="24" viewBox="0 0 24 24"><defs><style>.a{fill:none;}.b{fill:#47a9ff;fill-rule:evenodd;}</style></defs><rect class="a" width="24" height="24"/><path class="b" d="M45.826,10.178,36.4.341a1.07,1.07,0,0,0-1.566,0l-9.421,9.837a1.185,1.185,0,0,0-.318.807v11.88A1.114,1.114,0,0,0,26.2,24H45.043a1.114,1.114,0,0,0,1.1-1.135V10.985a1.122,1.122,0,0,0-.318-.807Zm-10.2,4.439a2.6,2.6,0,1,1,2.52-2.6A2.556,2.556,0,0,1,35.622,14.617Z" transform="translate(-23.622 0)"/></svg>