<svg xmlns="http://www.w3.org/2000/svg" width="24" height="24" viewBox="0 0 24 24"><defs><style>.a{fill:#47a9ff;fill-rule:evenodd;}.b{fill:none;}</style></defs><path class="a" d="M12.069,0A11.994,11.994,0,0,1,23.444,15.6l-8.854-5.1V5.2h0V2.6A2.593,2.593,0,0,0,12.069,0Zm8.774,20.109A12,12,0,1,1,11.931,0,2.611,2.611,0,0,0,9.39,2.6V5.2h0v6.71a3.121,3.121,0,0,0,.159.973h0a.073.073,0,0,1,.02.06h.02l.02.06h0l.02.04v.02h0l.02.04v.02h0l.02.04.02.02h0l.02.04v.02l.02.04h.02v.02h0l.02.02h0v.02h0c.02.02.02.04.04.04h0v.02h0l.02.04h.02v.02l.02.02.02.02h0l.02.04h0l.02.02h0v.02l.04.04h0v.02h.02l.02.02h0v.02l.04.04h.02l.02.04.02.02.02.02.02.02.02.02v.02h.02l.02.02.02.02h0l.02.02.02.02h.02v.02l.02.02h.02l.02.02.02.02h0l.02.02.02.02h.02v.02l.04.02h0l.02.02.02.02h.02l.04.02v.02h.02l.02.02h.02l.02.02.02.02h.02l.04.02v.02h.02l.04.02h0l10.065,5.816Z"/><rect class="b" width="24" height="24"/></svg>