<svg xmlns="http://www.w3.org/2000/svg" xmlns:xlink="http://www.w3.org/1999/xlink" width="36" height="36" viewBox="0 0 36 36"><g><path class="a" d="M34.293,14.211H32.4a1.709,1.709,0,0,1-1.591-1.137c-.076-.228-.191-.454-.265-.646a1.672,1.672,0,0,1,.339-1.933l1.365-1.363a1.693,1.693,0,0,0,0-2.426L29.291,3.752a1.691,1.691,0,0,0-2.424,0L25.5,5.115a1.732,1.732,0,0,1-1.933.341c-.226-.076-.415-.189-.643-.265A1.709,1.709,0,0,1,21.789,3.6V1.7a1.7,1.7,0,0,0-1.7-1.7h-4.17a1.7,1.7,0,0,0-1.7,1.7V3.637A1.674,1.674,0,0,1,13.074,5.23a4.257,4.257,0,0,0-.646.265A1.753,1.753,0,0,1,10.5,5.154L9.133,3.789a1.693,1.693,0,0,0-2.426,0L3.752,6.746a1.691,1.691,0,0,0,0,2.424l1.363,1.365a1.734,1.734,0,0,1,.341,1.933,4.731,4.731,0,0,0-.265.643A1.709,1.709,0,0,1,3.6,14.248H1.7A1.7,1.7,0,0,0,0,15.954v4.167a1.691,1.691,0,0,0,1.7,1.667H3.563a1.674,1.674,0,0,1,1.591,1.137c.076.228.189.454.265.683a1.753,1.753,0,0,1-.341,1.933L3.752,26.867a1.691,1.691,0,0,0,0,2.424l2.954,2.957a1.693,1.693,0,0,0,2.426,0l1.289-1.289a1.679,1.679,0,0,1,1.893-.341c.265.115.53.228.759.341a1.729,1.729,0,0,1,1.1,1.591v1.743A1.7,1.7,0,0,0,15.878,36h4.167a1.7,1.7,0,0,0,1.707-1.707V32.437a1.709,1.709,0,0,1,1.1-1.591,4.545,4.545,0,0,0,.759-.341,1.675,1.675,0,0,1,1.893.341l1.289,1.289a1.7,1.7,0,0,0,2.426,0l2.954-2.957a1.693,1.693,0,0,0,0-2.426L30.883,25.5a1.724,1.724,0,0,1-.339-1.933,5.079,5.079,0,0,0,.265-.683A1.71,1.71,0,0,1,32.4,21.752h1.893A1.7,1.7,0,0,0,36,20.046V15.878A1.69,1.69,0,0,0,34.293,14.211ZM18,21.9A3.9,3.9,0,1,1,21.9,18,3.9,3.9,0,0,1,18,21.9Z"/></g></svg>