<svg xmlns="http://www.w3.org/2000/svg" width="300.749" height="365.703" viewBox="0 0 300.749 365.703"><defs><style>.a,.c{fill:#fff;}.a,.b{fill-rule:evenodd;}.b,.f{fill:#645caa;}.d{fill:#fefefe;}.e{fill:#d9d9d9;}</style></defs><path class="a" d="M16.08,373.154H289.06V54.341a32.171,32.171,0,0,0-.222-3.971v62.023H16.08V373.154Z" transform="translate(-2.379 -7.451)"/><path class="b" d="M288.8,107.342H15.8l.239-59.287A31.954,31.954,0,0,1,48.145,16.23l35.549.162,14.281.068A10.108,10.108,0,0,1,107.8,26.813l-.034,3.689a10.1,10.1,0,0,0,9.816,10.353l79.166.366a10.087,10.087,0,0,0,9.91-10.268l.034-3.681a10.091,10.091,0,0,1,9.9-10.268l40.618.187a31.959,31.959,0,0,1,31.808,32.1Z" transform="translate(-2.337 -2.401)"/><path class="c" d="M0,365.7V45.424A45.627,45.627,0,0,1,44.478,0h4.746L255.333.954a45.62,45.62,0,0,1,45.416,45.825V365.7H286.681V46.89a31.959,31.959,0,0,0-31.808-32.1L214.255,14.6a10.091,10.091,0,0,0-9.9,10.268l-.034,3.681a10.087,10.087,0,0,1-9.91,10.268l-79.166-.366A10.1,10.1,0,0,1,105.427,28.1l.034-3.689a10.108,10.108,0,0,0-9.824-10.353l-14.281-.068-35.549-.162A31.954,31.954,0,0,0,13.7,45.654V365.7H0Z" transform="translate(0 0)"/><path class="d" d="M314.045,74.3a2.722,2.722,0,1,1-2.718-2.727,2.716,2.716,0,0,1,2.718,2.727Z" transform="translate(-45.649 -10.587)"/><path class="d" d="M314,85.787a2.718,2.718,0,1,1-2.71-2.727A2.715,2.715,0,0,1,314,85.787Z" transform="translate(-45.643 -12.287)"/><path class="d" d="M313.955,97.275a2.722,2.722,0,1,1-2.71-2.735A2.722,2.722,0,0,1,313.955,97.275Z" transform="translate(-45.636 -13.985)"/><path class="e" d="M196.182,251.259H41.82V176.932a25.11,25.11,0,0,1,25.111-25.1H196.182a25.1,25.1,0,0,1,25.111,25.1v49.224A25.1,25.1,0,0,1,196.182,251.259Zm-130-33.708a6.258,6.258,0,0,0-6.246,6.237h0a6.26,6.26,0,0,0,6.246,6.246h97.3a6.26,6.26,0,0,0,6.246-6.246h0a6.258,6.258,0,0,0-6.246-6.237Zm0-22.265a6.266,6.266,0,0,0-6.246,6.246h0a6.266,6.266,0,0,0,6.246,6.246H198.329a6.266,6.266,0,0,0,6.246-6.246h0a6.266,6.266,0,0,0-6.246-6.246Zm0-21.455a6.266,6.266,0,0,0-6.246,6.246h0a6.266,6.266,0,0,0,6.246,6.246H198.329a6.266,6.266,0,0,0,6.246-6.246h0a6.266,6.266,0,0,0-6.246-6.246Z" transform="translate(-6.186 -22.459)"/><path class="f" d="M61.2,347.229a21.79,21.79,0,0,0-21.762,21.762v1.022A21.782,21.782,0,0,0,61.2,391.767H250.948a21.783,21.783,0,0,0,21.762-21.754v-1.022a21.79,21.79,0,0,0-21.762-21.762H61.2Zm189.749,46H61.2A23.244,23.244,0,0,1,37.98,370.013v-1.022A23.244,23.244,0,0,1,61.2,345.78H250.948a23.237,23.237,0,0,1,23.211,23.211v1.022A23.237,23.237,0,0,1,250.948,393.224Z" transform="translate(-5.618 -51.149)"/><path class="f" d="M299.014,370.731a11.8,11.8,0,1,1-11.8-11.8A11.8,11.8,0,0,1,299.014,370.731Z" transform="translate(-40.741 -53.094)"/><path class="d" d="M43.733,93.182a1.239,1.239,0,0,1-.878-.366l-8.308-8.384a1.26,1.26,0,0,1-.358-.912,1.217,1.217,0,0,1,.418-.886l8.231-7.217a1.232,1.232,0,0,1,1.747.119,1.248,1.248,0,0,1-.119,1.747l-7.243,6.339,7.388,7.447a1.247,1.247,0,0,1-.009,1.755,1.225,1.225,0,0,1-.869.358Z" transform="translate(-5.057 -11.11)"/><path class="c" d="M80.643,89.829c.136.383.009.579-.4.579h-.912a1.966,1.966,0,0,1-.758-.111.637.637,0,0,1-.315-.418l-.8-2.249H72.642l-.818,2.249a.646.646,0,0,1-.324.418,1.936,1.936,0,0,1-.758.111h-.8c-.409,0-.537-.2-.4-.579L73.895,78.5a.824.824,0,0,1,.273-.392.837.837,0,0,1,.46-.1h.929a.869.869,0,0,1,.469.1.744.744,0,0,1,.264.375ZM75.522,82.16a7.11,7.11,0,0,1-.264-1c-.068-.358-.119-.631-.145-.835l-.017-.29h-.119a6.49,6.49,0,0,1-.383,2.1l-1.338,3.7h3.587L75.522,82.16Zm13.011-3.749a2.546,2.546,0,0,1-1,1.329,3.3,3.3,0,0,1-3.391,0,2.461,2.461,0,0,1-1-1.329.348.348,0,0,1,.247-.486l.682-.281c.264-.077.443-.017.537.2a1.273,1.273,0,0,0,2.437,0,.357.357,0,0,1,.46-.213l.8.3a.438.438,0,0,1,.247.2.359.359,0,0,1-.026.29Zm-5.206,2.965a.662.662,0,0,1,.418.111.581.581,0,0,1,.119.418v3.323a9.3,9.3,0,0,1-.366,2.548h.051a10.313,10.313,0,0,1,.98-1.764l3.085-4.371a.6.6,0,0,1,.52-.264H89.1a.618.618,0,0,1,.409.111.584.584,0,0,1,.111.418v7.958a.6.6,0,0,1-.111.418.534.534,0,0,1-.409.128h-.963a.569.569,0,0,1-.418-.128.6.6,0,0,1-.119-.418V86.591a9.319,9.319,0,0,1,.383-2.565h-.051a11.046,11.046,0,0,1-1.014,1.764l-3.05,4.337a.634.634,0,0,1-.537.281h-.963a.534.534,0,0,1-.409-.128.6.6,0,0,1-.111-.418V81.9a.584.584,0,0,1,.111-.418.618.618,0,0,1,.409-.111Zm16.326-3.34a.646.646,0,0,1,.46.128.607.607,0,0,1,.136.46v.852a.5.5,0,0,1-.6.6h-3v9.739a.494.494,0,0,1-.588.6H95.052a.494.494,0,0,1-.588-.6V80.073h-3a.5.5,0,0,1-.6-.6v-.852a.606.606,0,0,1,.136-.46.646.646,0,0,1,.46-.128Zm1.934,3.34a.645.645,0,0,1,.418.111.543.543,0,0,1,.128.418v3.323a9.636,9.636,0,0,1-.366,2.548h.051a9.687,9.687,0,0,1,.971-1.764l3.085-4.371a.614.614,0,0,1,.528-.264h.954a.618.618,0,0,1,.409.111.581.581,0,0,1,.119.418v7.958a.6.6,0,0,1-.119.418.534.534,0,0,1-.409.128H106.4a.543.543,0,0,1-.418-.128.556.556,0,0,1-.128-.418V86.591a9.319,9.319,0,0,1,.383-2.565h-.051a10.417,10.417,0,0,1-1.014,1.764l-3.042,4.337a.66.66,0,0,1-.545.281h-.954a.521.521,0,0,1-.409-.128.6.6,0,0,1-.119-.418V81.9a.581.581,0,0,1,.119-.418.6.6,0,0,1,.409-.111Zm19.325-3.34a.685.685,0,0,1,.469.128.646.646,0,0,1,.128.46v.852a.5.5,0,0,1-.6.6h-4.806v9.739a.606.606,0,0,1-.136.46.644.644,0,0,1-.46.136h-.988a.668.668,0,0,1-.469-.136.606.606,0,0,1-.145-.46V78.624a.606.606,0,0,1,.145-.46.671.671,0,0,1,.469-.128Zm-.6,6.57a3.252,3.252,0,0,1,1.04-2.565,5.265,5.265,0,0,1,5.947,0,3.23,3.23,0,0,1,1.048,2.565v2.573a3.242,3.242,0,0,1-1.048,2.565,5.265,5.265,0,0,1-5.947,0,3.264,3.264,0,0,1-1.04-2.565Zm6.007,0a1.508,1.508,0,0,0-.52-1.236,2.31,2.31,0,0,0-1.483-.426,2.284,2.284,0,0,0-1.474.426,1.528,1.528,0,0,0-.511,1.236v2.573a1.5,1.5,0,0,0,.511,1.218,2.238,2.238,0,0,0,1.474.443,2.263,2.263,0,0,0,1.483-.443,1.485,1.485,0,0,0,.52-1.218Zm4.4-2.982a9.764,9.764,0,0,1,3.383-.5,3.781,3.781,0,0,1,2.761.9,3.539,3.539,0,0,1,.912,2.616v2.386q0,3.643-3.885,3.638a7.756,7.756,0,0,1-1.832-.315V93.7a.6.6,0,0,1-.111.418.534.534,0,0,1-.409.128h-.963a.569.569,0,0,1-.418-.128.6.6,0,0,1-.119-.418V82.612a1.155,1.155,0,0,1,.128-.613,1.176,1.176,0,0,1,.554-.375Zm5.036,3.067c0-1.15-.656-1.73-1.951-1.73a5.753,5.753,0,0,0-1.568.2.231.231,0,0,0-.179.222v5.181a7.188,7.188,0,0,0,1.7.264c1.329,0,2-.622,2-1.866Zm3.468-.085a3.23,3.23,0,0,1,1.048-2.565,4.312,4.312,0,0,1,2.957-.92,4.369,4.369,0,0,1,2.982.92,3.23,3.23,0,0,1,1.048,2.565v2.573a3.242,3.242,0,0,1-1.048,2.565,4.369,4.369,0,0,1-2.982.92,4.312,4.312,0,0,1-2.957-.92,3.242,3.242,0,0,1-1.048-2.565Zm6.007,0a1.508,1.508,0,0,0-.52-1.236,2.31,2.31,0,0,0-1.483-.426,2.284,2.284,0,0,0-1.474.426,1.528,1.528,0,0,0-.511,1.236v2.573a1.5,1.5,0,0,0,.511,1.218,2.238,2.238,0,0,0,1.474.443A2.263,2.263,0,0,0,144.7,88.4a1.485,1.485,0,0,0,.52-1.218Zm12.551,3.92a.6.6,0,0,1,.418.119.6.6,0,0,1,.119.435v3.2a.58.58,0,0,1-.119.426.6.6,0,0,1-.418.119H156.9a.636.636,0,0,1-.426-.119.545.545,0,0,1-.136-.426V90.408h-6.2v1.875a.621.621,0,0,1-.119.426.61.61,0,0,1-.418.119h-.895a.571.571,0,0,1-.409-.119.673.673,0,0,1-.111-.426v-3.2a.7.7,0,0,1,.111-.435.571.571,0,0,1,.409-.119h.383c.724-.562,1.082-1.917,1.082-4.081V81.9a.436.436,0,0,1,.528-.528h5.734a.662.662,0,0,1,.418.111.581.581,0,0,1,.119.418v6.621h.8Zm-5.649-3.937a8.342,8.342,0,0,1-.716,3.937h3.545V83.242h-2.829v1.346Z" transform="translate(-10.279 -11.48)"/><path class="e" d="M69.326,366.29a6.266,6.266,0,0,0-6.246,6.246h0a6.266,6.266,0,0,0,6.246,6.246h97.3a6.266,6.266,0,0,0,6.246-6.246h0a6.266,6.266,0,0,0-6.246-6.246Z" transform="translate(-9.331 -54.183)"/></svg>