<svg xmlns="http://www.w3.org/2000/svg" xmlns:xlink="http://www.w3.org/1999/xlink" width="581.383" height="296.13" viewBox="0 0 581.383 296.13"><defs><style>.a,.b,.c,.d,.e,.g,.h,.l,.m,.n,.o,.p{fill-rule:evenodd;}.a{fill:url(#a);}.b{fill:#233d9a;}.c{fill:#3989d8;}.d{fill:url(#b);}.e{fill:url(#c);}.f{fill:rgba(247,251,255,0.9);}.g{fill:url(#d);}.h,.q{fill:#fff;}.i{fill:rgba(255,255,255,0.5);}.j{fill:#9bc2e6;}.k{fill:url(#e);}.l{fill:url(#f);}.m{fill:url(#h);}.n{fill:#f86413;}.o{fill:url(#i);}.p{fill:rgba(0,0,0,0.1);}</style><linearGradient id="a" x1="0.753" y1="0.148" x2="0.247" y2="1.092" gradientUnits="objectBoundingBox"><stop offset="0" stop-color="#ebb494"/><stop offset="0.49" stop-color="#f5d9c9"/><stop offset="1" stop-color="#fff"/></linearGradient><linearGradient id="b" x1="1.003" y1="0.502" x2="-0.053" y2="0.502" gradientUnits="objectBoundingBox"><stop offset="0" stop-color="#233d9a"/><stop offset="1" stop-color="#47a9ff"/></linearGradient><linearGradient id="c" x1="1.185" y1="-0.049" x2="1.295" y2="1.369" gradientUnits="objectBoundingBox"><stop offset="0" stop-color="#47a9ff"/><stop offset="0.831" stop-color="#2f73bd"/><stop offset="1" stop-color="#173d7a"/></linearGradient><linearGradient id="d" x1="0.45" y1="-0.007" x2="0.55" y2="1.007" gradientUnits="objectBoundingBox"><stop offset="0" stop-color="#66b8ff"/><stop offset="1" stop-color="#fff"/></linearGradient><linearGradient id="e" x1="0.937" y1="0.435" x2="0.002" y2="0.565" gradientUnits="objectBoundingBox"><stop offset="0" stop-color="#f86512"/><stop offset="1" stop-color="#ffa875"/></linearGradient><linearGradient id="f" x1="1.077" y1="0.524" x2="-0.078" y2="0.716" xlink:href="#a"/><linearGradient id="h" x1="-1.296" y1="3.192" x2="-0.636" y2="3.343" gradientUnits="objectBoundingBox"><stop offset="0" stop-color="#003a9e"/><stop offset="0.239" stop-color="#2371ce"/><stop offset="1" stop-color="#47a9ff"/></linearGradient><linearGradient id="i" x1="0.413" y1="0.083" x2="0.587" y2="1.157" gradientUnits="objectBoundingBox"><stop offset="0" stop-color="#ebb494"/><stop offset="0.224" stop-color="#f5d9c9"/><stop offset="0.678" stop-color="#fff"/><stop offset="1" stop-color="#fff"/></linearGradient></defs><g transform="translate(-0.004 0)"><g transform="translate(0.004 0)"><path class="a" d="M84.355,187.645c-12.367-.017-24.66-.1-37.052.008a20.013,20.013,0,0,1-6.881-38.8l43.965,25.3-.033,13.5Z" transform="translate(-4.645 -25.303)"/><path class="b" d="M282.115,251.464,400.3,183.039c3.884-2.241,5.686-5.279,5.561-8.425h0v-17.14l-6.565,7.7c-.432-.291-.863-.573-1.345-.838L156.227,25.246c-9.587-5.52-24.1-6.1-32.412-1.353L7.332,91.389c-2.357-2.581-7.3-8.034-7.3-8.034v16.774h0c-.174,3.777,2.515,7.8,7.927,10.923L249.678,250.145c9.636,5.544,24.145,6.125,32.437,1.32Z" transform="translate(-0.007 -3.516)"/><path class="c" d="M415.988,245.692l-9.147,5.32c-1.228.7-2.241,0-2.241-1.685h0a5.293,5.293,0,0,1,2.241-4.225l9.147-5.329c1.228-.714,2.216,0,2.216,1.668h0a5.336,5.336,0,0,1-2.216,4.241Z" transform="translate(-68.783 -40.713)"/><path class="d" d="M156.2,25.215c-9.587-5.528-24.1-6.109-32.412-1.353L7.332,91.383C4.975,88.8.028,83.348.028,83.348v16.774h0c-.174,3.777,2.515,7.8,7.927,10.923L249.678,250.138a37.675,37.675,0,0,0,17.447,4.532l-.232-165.752L156.2,25.215Z" transform="translate(-0.007 -3.51)"/><path class="e" d="M16.85,75.639,130.4,9.886c6.167-3.561,16.94-3.129,24.07.971l238.3,137.067c7.13,4.05,7.91,10.334,1.743,13.894L280.917,227.572c-6.167,3.561-16.957,3.129-24.087-.971L18.61,89.484c-7.13-4.109-7.918-10.334-1.76-13.845Z" transform="translate(-2.163 -1.27)"/><path class="f" d="M153.586,10.384l24.693,14.2c-.133,2.54-.266,5.071-.382,7.619-.6,11.379-1.154,22.75-1.735,34.122C175.813,75.141,169.6,84,157.6,90.9c-11.935,6.872-27.4,10.475-42.7,10.666q-29.594.461-59.2.913-7.059.125-14.127.224L18.61,89.483c-7.13-4.109-7.918-10.334-1.76-13.845L130.4,9.886c5.918-3.42,16.077-3.162,23.19.5Z" transform="translate(-2.163 -1.27)"/><path class="g" d="M5.6,71.671,123.747,3.245c8.308-4.8,22.809-4.216,32.412,1.345L397.881,143.682c9.595,5.528,10.649,13.894,2.349,18.7L282.07,230.808c-8.292,4.814-22.792,4.233-32.412-1.345L7.944,90.371C-1.643,84.777-2.7,76.41,5.6,71.671Zm42.72-7.014c-2.465-1.419-4.275-2.465-6.74-3.884a2.749,2.749,0,0,0-3.345-.033L14.692,74.369c-6.159,3.511-5.37,9.736,1.76,13.845L254.672,225.33c7.13,4.1,17.92,4.532,24.087.971l113.586-65.753c6.167-3.561,5.387-9.844-1.743-13.894L152.307,9.587c-7.13-4.1-17.9-4.532-24.07-.971l-17,9.844c-1.253.722-.93,1.345.008,1.884l6.69,3.86c1,.564.847,1.594-.083,2.133l-66.5,38.28a3.325,3.325,0,0,1-3.038.042Z" transform="translate(-0.004 0)"/><path class="h" d="M282.159,249.119,400.31,180.693c4.283-2.473,6.051-5.9,5.47-9.454-.216,2.83-2.025,5.52-5.569,7.578l-118.16,68.417c-8.283,4.814-22.792,4.233-32.4-1.345L7.924,106.8C3.268,104.1.645,100.789.106,97.51c-.282,3.835,2.39,7.951,7.9,11.122L249.73,247.725C259.367,253.344,273.875,253.925,282.159,249.119Z" transform="translate(-0.018 -16.576)"/><path class="i" d="M173.256,164.847a.535.535,0,1,1-.531-.93l112.3-64.633a.535.535,0,1,1,.531.93Z" transform="translate(-29.32 -16.865)"/><path class="j" d="M169.371,163.6l-5.212-3a.591.591,0,0,1,.041-1.1l34-19.572a1.706,1.706,0,0,1,1.552-.025l5.212,3a.593.593,0,0,1-.042,1.1l-34,19.572a1.706,1.706,0,0,1-1.552.017Z" transform="translate(-27.85 -23.754)"/><path class="k" d="M205.53,182.991l-16.426-9.47c-1.594-.921-1.386-2.581.141-3.453l107.179-61.686a5.374,5.374,0,0,1,4.889-.075l16.418,9.47c1.61.913,1.378,2.573-.133,3.445l-107.17,61.694a5.392,5.392,0,0,1-4.9.075Z" transform="translate(-31.963 -18.317)"/><path class="l" d="M95.84,196.47c0-13.712.125-27.307,0-41.019a20.007,20.007,0,1,1,40.015,0l-.058,69.372c-13.828,6.648-39.957-6.408-39.957-28.353Z" transform="translate(-16.296 -23.024)"/><path class="l" d="M142.23,222.64V181.613a20.007,20.007,0,0,1,40.015,0l-.058,69.38c-13.828,6.648-39.957-6.408-39.957-28.353Z" transform="translate(-24.182 -27.472)"/><path class="m" d="M143.865,73.751a5.558,5.558,0,0,0,2.581-.656,1.914,1.914,0,0,0,1.137-1.486l.017-.008h0q.037-1.033.1-2.092c-1.212.025-2.424.041-3.627.058l-.008.008c-1.212.017-2.424.042-3.627.05-2.424.042-4.831.075-7.246.108s-4.831.075-7.238.108c-1.212.017-2.424.042-3.627.05a5.427,5.427,0,0,0-2.59.664,2,2,0,0,0-1.154,1.494c-.042.7-.066,1.386-.083,2.075-.075,1.4-.149,2.8-.216,4.183s-.133,2.789-.191,4.175c-.075,1.394-.149,2.8-.208,4.183,1.2-.017,2.407-.033,3.619-.058a5.48,5.48,0,0,0,2.6-.656,1.9,1.9,0,0,0,1.121-1.477s.017-.008,0-.033c.05-.672.075-1.37.116-2.067.058-1.386.133-2.781.208-4.183.058-1.386.116-2.772.191-4.167q3.623-.05,7.263-.116,3.611-.05,7.246-.108l3.619-.05h0Zm-30.66,5.91c.025-.847.075-1.7.116-2.556-1.461.042-2.947.066-4.416.083-.042.855-.083,1.71-.141,2.54,1.469-.017,2.955-.042,4.441-.066Zm1.378.349c.066-1.079.116-2.191.166-3.3.008-.249-.315-.432-.747-.432-1.892.041-3.818.075-5.719.091-.44.008-.788.207-.78.448-.05,1.1-.1,2.216-.183,3.3.008.241.332.432.747.432,1.926-.025,3.843-.058,5.735-.1.423,0,.772-.2.78-.448Z" transform="translate(-18.247 -11.816)"/><path class="n" d="M140.786,81.005c.075-1.1.133-2.2.183-3.3-.008-.249-.324-.432-.747-.432-1.892.042-3.818.066-5.735.1-.423-.008-.772.191-.78.448-.05,1.1-.1,2.208-.166,3.287-.008.257.315.44.747.432,1.909-.017,3.826-.042,5.719-.091C140.446,81.445,140.794,81.246,140.786,81.005Z" transform="translate(-22.705 -13.135)"/><path class="j" d="M236.991,201.562l-16.418-9.47a2.418,2.418,0,0,1-.888-.838,1.63,1.63,0,0,1-.216-.847,1.711,1.711,0,0,1,.241-.813,2.584,2.584,0,0,1,1-.946l107.179-61.686a5.23,5.23,0,0,1,2.473-.631,4.757,4.757,0,0,1,2.415.548l16.418,9.479a2.322,2.322,0,0,1,.888.822,1.65,1.65,0,0,1,.216.847,1.727,1.727,0,0,1-.232.813,2.661,2.661,0,0,1-1,.955L241.9,201.487a5.371,5.371,0,0,1-2.49.631,4.721,4.721,0,0,1-2.415-.556Zm-15.878-10.4,16.418,9.47a3.724,3.724,0,0,0,1.859.407,4.2,4.2,0,0,0,1.967-.481l107.171-61.694a1.6,1.6,0,0,0,.606-.556.827.827,0,0,0,.1-.307.548.548,0,0,0-.083-.282,1.32,1.32,0,0,0-.481-.432l-16.418-9.47a3.688,3.688,0,0,0-1.868-.407,4.219,4.219,0,0,0-1.959.481L221.246,189.576a1.566,1.566,0,0,0-.6.556.561.561,0,0,0-.1.307.593.593,0,0,0,.075.274,1.375,1.375,0,0,0,.49.448Z" transform="translate(-37.312 -21.475)"/><path class="o" d="M286.5,117.572a20.01,20.01,0,0,1,20.011-20h58.233s42.04-1.2,72.651,29.415L613.306,302.9l-9.819,9.819H344.268c-11.853,0-42.936.34-81.241-21.771l-52.714-30.436s-22.543-12.749-22.543-27V192.488a20.007,20.007,0,1,1,40.015,0l-.415,39.558,54.224,31.167c9.636,5.544,24.145,6.125,32.437,1.32l118.185-68.426c3.884-2.241,5.686-5.279,5.561-8.425h0v-17.14c-.125-3.6-2.847-7.321-7.976-10.275l-39.384-22.659-83.905-.025A20.012,20.012,0,0,1,286.5,117.572Z" transform="translate(-31.923 -16.585)"/><path class="p" d="M444.512,163.524,341.873,163.5a20.021,20.021,0,0,1-20-19.439,19.969,19.969,0,0,0,7.437,1.428l83.905.025Z" transform="translate(-54.719 -24.489)"/><path class="q" d="M251.024,161.038l-4.233-2.44a.478.478,0,0,1,.033-.888l27.623-15.9a1.381,1.381,0,0,1,1.262-.017l4.233,2.44c.415.232.349.656-.033.888l-27.623,15.895a1.407,1.407,0,0,1-1.262.025Z" transform="translate(-41.908 -24.078)"/><path class="j" d="M282.494,179.608l-4.233-2.44c-.415-.241-.357-.664.033-.888l27.623-15.9a1.381,1.381,0,0,1,1.262-.017l4.233,2.44c.407.232.349.664-.041.888l-27.614,15.895a1.382,1.382,0,0,1-1.262.025Z" transform="translate(-47.258 -27.235)"/></g></g></svg>