<svg xmlns="http://www.w3.org/2000/svg" width="9.167" height="16.616" viewBox="0 0 9.167 16.616"><defs><style>.a{fill:#3093e4;fill-rule:evenodd;}</style></defs><path class="a" d="M.43,3.116h0a1.471,1.471,0,0,1,0-2.075l0,0,0,0L1.468,0,2.5,1.036l.007,0L3.544,2.078,5.621,4.153,7.7,6.23,8.733,7.267a1.468,1.468,0,0,1,0,2.082L7.7,10.386,5.621,12.461,3.544,14.538,1.468,16.616.432,15.579h0a1.471,1.471,0,0,1-.009-2.073l.014-.014,1.032-1.032,2.075-2.075L5.621,8.308,3.544,6.23,1.468,4.153.43,3.116Z" transform="translate(0)"/></svg>