<svg xmlns="http://www.w3.org/2000/svg" width="24" height="24" viewBox="0 0 24 24"><defs><style>.a{fill:#f86512;fill-rule:evenodd;}.b{fill:none;}</style></defs><path class="a" d="M21.023,6.243l-2,8.032a1.469,1.469,0,0,1-1.378,1.046H5.293a1.368,1.368,0,0,1-1.426-1.236L2.394,2.489h-.95a1.07,1.07,0,1,1,0-2.139h1.9A1.036,1.036,0,0,1,4.39,1.3l.57,4.04H20.31a.734.734,0,0,1,.713.9ZM17.459,18.885a2.139,2.139,0,1,0-2.139,2.139A2.13,2.13,0,0,0,17.459,18.885Zm-12.832,0a2.139,2.139,0,1,0,2.139-2.139A2.13,2.13,0,0,0,4.627,18.885Z" transform="translate(1.313 1.313)"/><rect class="b" width="24" height="24"/></svg>