<svg xmlns="http://www.w3.org/2000/svg" width="24" height="24" viewBox="0 0 24 24"><defs><style>.a{fill:none;}.b{fill:#f86512;fill-rule:evenodd;}</style></defs><rect class="a" width="24" height="24"/><path class="b" d="M17.534,18.857A8.736,8.736,0,0,1,10.273,24H8.458A8.873,8.873,0,0,1,1.2,18.857,9.222,9.222,0,0,1,.29,14.723,9.879,9.879,0,0,1,1.8,9.479L7.551,1.008A2.253,2.253,0,0,1,9.366,0a2.3,2.3,0,0,1,1.916,1.008l5.647,8.471a9.728,9.728,0,0,1,1.613,5.244,8.367,8.367,0,0,1-1.008,4.134h0Z" transform="translate(2.634 0)"/></svg>