<?xml version="1.0" encoding="UTF-8"?>
<!DOCTYPE svg PUBLIC "-//W3C//DTD SVG 1.1//EN" "http://www.w3.org/Graphics/SVG/1.1/DTD/svg11.dtd">
<!-- Creator: CorelDRAW 2018 (64-Bit) -->
<svg xmlns="http://www.w3.org/2000/svg" xml:space="preserve" width="24px" height="24px" version="1.1" style="shape-rendering:geometricPrecision; text-rendering:geometricPrecision; image-rendering:optimizeQuality; fill-rule:evenodd; clip-rule:evenodd"
viewBox="0 0 0.47 0.47"
 xmlns:xlink="http://www.w3.org/1999/xlink">
 <defs>
  <style type="text/css">
   <![CDATA[
    .fil0 {fill:none}
    .fil1 {fill:#47A9FF}
   ]]>
  </style>
 </defs>
 <g id="Слой_x0020_1">
  <metadata id="CorelCorpID_0Corel-Layer"/>
  <rect class="fil0" width="0.47" height="0.47"/>
  <path class="fil1" d="M0.43 0.25c0,-0.1 -0.08,-0.18 -0.18,-0.18l0 -0.06c0,-0.01 -0.01,-0.01 -0.02,-0.01l-0.11 0.09c-0.01,0.01 -0.01,0.01 0,0.02l0.11 0.09c0.01,0 0.02,0 0.02,-0.01l0 -0.05c0.07,0 0.12,0.07 0.11,0.14 0,0.06 -0.05,0.11 -0.11,0.12 -0.08,0 -0.14,-0.05 -0.15,-0.12 0,-0.01 0,-0.01 -0.01,-0.01l-0.05 0c0,0 -0.01,0 -0.01,0.01 0.01,0.1 0.1,0.19 0.2,0.19 0.12,0 0.21,-0.1 0.2,-0.22z"/>
 </g>
</svg>
