<svg xmlns="http://www.w3.org/2000/svg" xmlns:xlink="http://www.w3.org/1999/xlink" width="210" height="58.272" viewBox="0 0 210 58.272"><defs><style>.a,.b,.c,.d{fill-rule:evenodd;}.a{fill:url(#a);}.b{fill:url(#b);}.c{fill:url(#c);}.d{fill:#47a9ff;}.e{fill:#003a9e;}.f{fill:#f57900;}</style><linearGradient id="a" x1="0.008" y1="0.413" x2="0.992" y2="0.587" gradientUnits="objectBoundingBox"><stop offset="0" stop-color="#003a9e"/><stop offset="0.239" stop-color="#2371ce"/><stop offset="1" stop-color="#47a9ff"/></linearGradient><linearGradient id="b" x1="0.183" y1="0.113" x2="0.817" y2="0.887" gradientUnits="objectBoundingBox"><stop offset="0" stop-color="#003a9e"/><stop offset="0.188" stop-color="#2371ce"/><stop offset="1" stop-color="#47a9ff"/></linearGradient><linearGradient id="c" x1="0.312" y1="0.998" x2="0.688" y2="0.002" gradientUnits="objectBoundingBox"><stop offset="0" stop-color="#f57900"/><stop offset="0.812" stop-color="#fa5a1d"/><stop offset="1" stop-color="#ff3b3b"/></linearGradient></defs><g transform="translate(0 -0.003)"><g transform="translate(0 0.003)"><path class="a" d="M77.645,54.209h0a8.457,8.457,0,0,0,11.942.007l.007-.007.007-.014,5.967-5.96-5.96-5.96-.028-.028-5.96-5.96L71.678,24.344,59.729,12.4,53.776,6.442a8.457,8.457,0,0,0-11.984-.007L35.839,12.4,23.89,24.344,11.949,36.286,0,48.234l5.96,5.96h0a8.449,8.449,0,0,0,11.914.056l.084-.084,5.932-5.932L35.839,36.286,47.781,24.344,59.729,36.286,71.678,48.234l5.967,5.974Z" transform="translate(0 -1.179)"/><path class="b" d="M97.925,59.277h0a8.457,8.457,0,0,0,11.942.007l.007-.007.007-.014,5.967-5.96-4.339-4.339-7.61-7.61-7.463-7.463-4.479-4.479-5.981-5.981a8.441,8.441,0,0,0-11.956.021l-5.953,5.953-.007.007h0L80.009,41.354l5.974,5.974L91.957,53.3l5.967,5.974Z" transform="translate(-20.279 -6.247)"/><path class="c" d="M64.542,72.975l9.47-9.47a1.758,1.758,0,0,0,0-2.478l-9.47-9.463a1.758,1.758,0,0,0-2.478,0l-9.47,9.463a1.758,1.758,0,0,0,0,2.478l9.47,9.47A1.758,1.758,0,0,0,64.542,72.975Z" transform="translate(-15.519 -15.214)"/><path class="d" d="M12.256,18.513l7.294-7.294L12.256,3.925l-7.3,7.294Zm1.236,3.412,9.47-9.47a1.75,1.75,0,0,0,0-2.471L13.492.513a1.758,1.758,0,0,0-2.478,0l-9.47,9.47a1.75,1.75,0,0,0,0,2.471l9.47,9.47A1.758,1.758,0,0,0,13.492,21.925Z" transform="translate(-0.308 -0.003)"/><path class="e" d="M156.83,44.735h3.033A3.02,3.02,0,0,0,162.9,41.7V38.62h7.821a13.543,13.543,0,0,0,9.232-3.573,11.4,11.4,0,0,0,.007-16.933,13.606,13.606,0,0,0-9.239-3.573H159.863a3.023,3.023,0,0,0-2.148.885v.007a3.019,3.019,0,0,0-.885,2.141Zm99.015,4.479a3.023,3.023,0,0,0,.885-2.148V38.718h-3.8V14.54h-6.066V38.718H231.709V14.54h-6.073V44.735h25.028V50.1H253.7A3.048,3.048,0,0,0,255.845,49.214ZM162.9,31.873v-11.4h7.512a7.929,7.929,0,0,1,5.02,1.741,5.7,5.7,0,0,1,2.225,4.346,5.8,5.8,0,0,1-2.12,4.388,7.5,7.5,0,0,1-4.9,1.734H162.9ZM189.4,44.735h6.733l15.74-21.742V44.735h6.066V14.54h-6.683L195.47,36.282V14.54H189.4V44.735Z" transform="translate(-46.73 -4.334)"/><path class="f" d="M156.76,75.929V74.651h.26c.365,0,.576-.225.618-.688l.323-3.763h3.988v5.644h-1.334V71.393h-1.425l-.225,2.569c-.119,1.313-.772,1.966-1.945,1.966Z" transform="translate(-46.709 -20.919)"/><path class="f" d="M170.543,70.2h1.2v5.644H170.41V72.531l-2.429,3.314h-1.2V70.2h1.32v3.321Z" transform="translate(-49.695 -20.919)"/><path class="f" d="M179.513,70.2h1.327v5.644h-1.327v-2.12a1.71,1.71,0,0,1-1.418.66,1.783,1.783,0,0,1-1.825-1.917V70.2H177.6v1.973a.89.89,0,0,0,.274.709.966.966,0,0,0,.646.239,1.031,1.031,0,0,0,.7-.26.944.944,0,0,0,.3-.758V70.2Z" transform="translate(-52.522 -20.919)"/><path class="f" d="M185.39,75.844V70.2h1.327v2.225h2.141V70.2h1.32v5.644h-1.32V73.619h-2.141v2.225Z" transform="translate(-55.24 -20.919)"/><path class="f" d="M194.85,70.2h1.327v1.9h.976a2.174,2.174,0,0,1,1.509.512,1.907,1.907,0,0,1,0,2.717,2.174,2.174,0,0,1-1.509.512h-2.3V70.2Zm5.048,5.644V70.2h1.32v5.644ZM196.177,73.3v1.355h.955a.806.806,0,0,0,.562-.183.661.661,0,0,0,.19-.491.65.65,0,0,0-.19-.491.777.777,0,0,0-.562-.19h-.955Z" transform="translate(-58.058 -20.919)"/><path class="f" d="M209.038,69.051a1.362,1.362,0,0,1-1.011-.372,1.29,1.29,0,0,1-.379-.969h.913a.593.593,0,0,0,.133.407.431.431,0,0,0,.344.154.452.452,0,0,0,.344-.154.63.63,0,0,0,.133-.407h.913a1.269,1.269,0,0,1-.386.969,1.356,1.356,0,0,1-1,.372Zm1.285.407h1.2V75.1H210.19V71.789L207.76,75.1h-1.2V69.458h1.327v3.321Z" transform="translate(-61.548 -20.177)"/><path class="f" d="M223.19,75.844V70.2h1.32v2.232h.534l1.278-2.232h1.573l-1.65,2.731,1.72,2.913h-1.643l-1.278-2.218h-.534v2.218Z" transform="translate(-66.503 -20.919)"/><path class="f" d="M234.951,70.2l2.225,5.644h-1.4l-.442-1.193h-2.254l-.442,1.193h-1.4l2.225-5.644Zm-1.439,3.257h1.376l-.688-1.818-.688,1.818Z" transform="translate(-68.898 -20.919)"/><path class="f" d="M241.71,75.844V70.2h4.037v1.193h-2.71V72.1h.976a2.174,2.174,0,0,1,1.509.512,1.907,1.907,0,0,1,0,2.717,2.174,2.174,0,0,1-1.509.512h-2.3Zm1.327-1.193h.955a.806.806,0,0,0,.562-.183.661.661,0,0,0,.19-.491.65.65,0,0,0-.19-.491.777.777,0,0,0-.562-.19h-.955v1.355Z" transform="translate(-72.021 -20.919)"/><path class="f" d="M254.023,70.2h1.2v5.644H253.89V72.531l-2.429,3.314h-1.2V70.2h1.32v3.321Z" transform="translate(-74.569 -20.919)"/><path class="f" d="M259.96,75.844V70.2h1.32v2.225h2.141V70.2h1.327v5.644h-1.327V73.619H261.28v2.225Z" transform="translate(-77.459 -20.919)"/><path class="f" d="M269.41,75.844V70.2h3.9v1.193h-2.569v1.025h2.408v1.193h-2.408v1.039h2.633v1.193Z" transform="translate(-80.275 -20.919)"/><path class="f" d="M278.608,75.844V71.393H277V70.2h4.528v1.193h-1.6v4.451Z" transform="translate(-82.536 -20.919)"/></g></g></svg>