<svg xmlns="http://www.w3.org/2000/svg" xmlns:xlink="http://www.w3.org/1999/xlink" width="53.918" height="117.179" viewBox="0 0 53.918 117.179"><defs><style>.a,.b{fill-rule:evenodd;}.a{fill:url(#a);}.b{fill:#fff;}</style><linearGradient id="a" x1="-1.668" y1="0.269" x2="0.995" y2="0.731" gradientUnits="objectBoundingBox"><stop offset="0" stop-color="#f57900"/><stop offset="0.812" stop-color="#fa5a1d"/><stop offset="1" stop-color="#ff3b3b"/></linearGradient></defs><path class="a" d="M0,117.179,50.638,66.541a11.276,11.276,0,0,0,0-15.9L0,0V44.117L11.092,55.209a4.8,4.8,0,0,1,0,6.76L0,73.061Z" transform="translate(0 0)"/><path class="b" d="M12.99,4.544l8.446,8.446L12.99,21.437,4.544,12.99ZM14.424.591,25.388,11.556a2.031,2.031,0,0,1,0,2.866L14.424,25.388a2.032,2.032,0,0,1-2.867,0L.591,14.423a2.033,2.033,0,0,1,0-2.866L11.556.591A2.034,2.034,0,0,1,14.424.591Z" transform="translate(14.179 14.411)"/></svg>